<?xml version="1.0" standalone="no"?>
<!DOCTYPE svg PUBLIC "-//W3C//DTD SVG 20010904//EN"
 "http://www.w3.org/TR/2001/REC-SVG-20010904/DTD/svg10.dtd">
<svg version="1.0" xmlns="http://www.w3.org/2000/svg"
 width="304.000000pt" height="304.000000pt" viewBox="0 0 304.000000 304.000000"
 preserveAspectRatio="xMidYMid meet">
<metadata>
Created by potrace 1.11, written by Peter Selinger 2001-2013
</metadata>
<g transform="translate(0.000000,304.000000) scale(0.100000,-0.100000)"
fill="#000000" stroke="none">
<path d="M143 2762 c-28 -4 -51 -35 -47 -65 1 -12 10 -58 18 -102 9 -44 19
-96 22 -115 3 -19 7 -42 9 -50 2 -8 7 -31 10 -50 24 -141 47 -236 60 -249 14
-14 154 -16 1298 -17 705 0 1289 3 1298 7 26 13 40 62 74 264 3 17 18 98 33
180 31 158 29 178 -10 191 -21 7 -2716 13 -2765 6z"/>
<path d="M355 1902 c-14 -7 -25 -17 -26 -22 -3 -28 -2 -48 4 -80 4 -19 9 -46
12 -60 6 -31 25 -136 31 -170 3 -14 9 -52 15 -85 6 -33 13 -73 16 -89 8 -51
22 -76 45 -84 13 -5 499 -8 1081 -8 l1058 1 19 25 c11 14 19 30 18 35 -1 6 1
24 5 40 4 17 9 46 12 65 5 30 23 131 42 230 32 172 32 172 8 194 -24 21 -26
21 -1170 21 -914 0 -1151 -3 -1170 -13z"/>
<path d="M1163 1082 c-103 -106 -145 -278 -109 -435 22 -92 61 -161 132 -233
91 -89 194 -135 317 -139 132 -4 255 45 348 137 99 100 141 199 145 342 3 123
-35 231 -111 321 l-34 40 -328 0 -328 1 -32 -34z"/>
</g>
</svg>
