<?xml version="1.0" standalone="no"?>
<!DOCTYPE svg PUBLIC "-//W3C//DTD SVG 20010904//EN"
 "http://www.w3.org/TR/2001/REC-SVG-20010904/DTD/svg10.dtd">
<svg version="1.0" xmlns="http://www.w3.org/2000/svg"
 width="304.000000pt" height="304.000000pt" viewBox="0 0 304.000000 304.000000"
 preserveAspectRatio="xMidYMid meet">
<metadata>
Created by potrace 1.11, written by Peter Selinger 2001-2013
</metadata>
<g transform="translate(0.000000,304.000000) scale(0.100000,-0.100000)"
fill="#000000" stroke="none">
<path d="M143 2702 c-13 -2 -29 -13 -37 -24 -14 -20 -14 -29 4 -123 5 -27 12
-61 14 -75 3 -14 7 -34 9 -45 2 -11 8 -38 12 -60 4 -22 9 -49 11 -60 2 -11 12
-67 23 -123 11 -61 25 -111 35 -120 15 -16 122 -17 1303 -17 1131 0 1289 2
1305 15 16 14 29 64 58 225 5 33 12 71 15 85 3 14 8 41 11 60 4 19 8 44 11 55
33 165 32 176 -6 200 -14 9 -2708 15 -2768 7z"/>
<path d="M368 1842 c-20 -4 -46 -42 -43 -62 11 -66 18 -103 41 -221 14 -74 28
-143 30 -154 2 -10 6 -37 9 -58 9 -56 21 -84 42 -95 14 -6 2046 -10 2135 -3
22 1 44 43 51 96 3 22 13 74 21 115 8 41 18 89 21 105 3 17 13 76 24 131 17
98 17 102 0 125 l-18 24 -1148 0 c-632 0 -1156 -1 -1165 -3z"/>
<path d="M1182 1032 c-13 -2 -38 -24 -61 -55 -82 -111 -110 -199 -106 -335 5
-149 47 -250 146 -352 104 -107 212 -153 359 -152 150 1 254 45 359 153 55 56
105 141 132 224 22 68 17 229 -9 307 -24 70 -68 143 -112 186 l-27 27 -329 0
c-181 0 -339 -1 -352 -3z"/>
</g>
</svg>
